<?xml version="1.0" standalone="no"?>
<!DOCTYPE svg PUBLIC "-//W3C//DTD SVG 20010904//EN"
 "http://www.w3.org/TR/2001/REC-SVG-20010904/DTD/svg10.dtd">
<svg version="1.0" xmlns="http://www.w3.org/2000/svg"
 width="20" height="20" viewBox="0 0 40 40"
 preserveAspectRatio="xMidYMid meet">
<metadata>
Created by potrace 1.15, written by Peter Selinger 2001-2017
</metadata>

<path d="M3911 12614 c-84 -75 -205 -304 -262 -496 -12 -40 -26 -79 -32 -86
-13 -16 -244 -160 -502 -312 -304 -179 -478 -257 -688 -311 -131 -33 -158 -49
-218 -137 -30 -42 -78 -103 -107 -135 -61 -67 -102 -146 -102 -197 0 -74 64
-165 170 -243 19 -14 107 -64 195 -112 324 -177 449 -282 570 -481 104 -171
193 -303 237 -350 31 -34 135 -122 176 -150 2 -1 -20 -31 -50 -66 -75 -88
-114 -147 -174 -261 l-51 -99 -169 -2 c-138 -2 -186 -7 -259 -26 -110 -28
-184 -60 -214 -91 -37 -39 -63 -98 -56 -126 14 -56 158 -86 423 -87 l184 -1
-6 -50 c-9 -72 -25 -246 -26 -270 0 -14 -17 -29 -53 -49 -174 -97 -326 -221
-390 -319 -67 -102 -55 -112 50 -40 99 68 383 233 383 223 0 -4 -39 -32 -87
-61 -131 -77 -265 -173 -333 -236 -113 -105 -231 -316 -393 -708 -190 -458
-266 -718 -298 -1010 -16 -146 -6 -491 20 -710 11 -93 28 -228 36 -300 9 -71
18 -220 20 -330 l3 -200 -8 190 c-8 191 -15 265 -51 540 -35 264 -50 491 -44
630 7 146 36 403 66 574 22 134 22 124 8 115 -31 -19 -126 -287 -154 -432 -8
-41 -21 -133 -29 -205 -35 -322 -30 -466 31 -892 35 -241 37 -260 37 -545 1
-317 0 -327 -60 -598 -68 -303 -94 -464 -119 -737 -36 -392 -79 -671 -141
-905 -20 -74 -45 -173 -55 -220 -11 -47 -21 -95 -24 -108 -3 -12 -1 -22 5 -22
17 0 56 89 95 215 20 66 52 167 70 225 80 254 138 592 190 1100 22 215 37 308
94 590 27 135 54 286 60 335 18 147 20 154 15 65 -2 -47 -20 -175 -39 -285
-58 -333 -93 -555 -135 -875 -92 -700 -173 -1051 -329 -1440 -104 -257 -286
-547 -436 -695 -50 -49 -107 -98 -126 -108 l-34 -18 30 23 c70 53 148 136 166
176 11 24 18 46 15 50 -3 3 -54 -18 -113 -45 -119 -56 -153 -67 -357 -113
-164 -38 -210 -56 -265 -105 -48 -43 -104 -132 -122 -192 -17 -60 0 -113 57
-174 66 -70 151 -121 340 -203 380 -166 495 -193 1009 -240 355 -33 366 -34
825 -56 417 -20 524 -24 1085 -40 758 -22 1206 -61 1710 -149 490 -85 856 -98
1480 -51 143 11 386 24 540 30 619 23 960 54 1234 111 193 41 355 36 585 -18
127 -30 210 -29 254 3 73 54 140 212 129 305 -12 101 -54 157 -287 389 -289
288 -314 325 -494 740 -46 107 -130 290 -186 405 -168 347 -203 444 -236 660
-30 190 -26 594 8 920 34 314 36 346 48 650 21 496 48 812 100 1130 46 289 61
445 61 650 0 271 -37 498 -123 758 -74 225 -147 358 -338 612 -181 241 -303
365 -519 528 -53 39 -181 137 -286 218 -230 177 -332 245 -467 309 -100 47
-492 189 -526 191 -9 0 87 27 213 59 127 32 356 97 509 144 438 135 613 166
807 146 56 -5 103 -9 104 -8 28 44 46 80 42 85 -13 12 -218 20 -312 11 -140
-12 -275 -45 -615 -148 -353 -106 -409 -122 -520 -148 -222 -53 -459 -88 -488
-72 -9 5 -39 18 -65 29 -40 17 -48 24 -45 43 2 18 49 45 253 148 338 170 526
285 740 454 219 172 371 316 478 452 107 136 163 167 389 214 32 6 79 26 105
43 41 28 57 51 122 172 l75 140 4 100 c6 150 -23 248 -148 502 -99 203 -142
274 -222 370 -103 123 -261 217 -429 255 -85 19 -128 21 -469 23 -400 3 -490
10 -732 61 -201 42 -352 97 -546 196 -97 50 -223 115 -279 143 -122 63 -222
95 -403 131 -283 55 -420 116 -555 244 -127 122 -184 138 -254 74z m-280
-3202 c129 -87 284 -194 345 -237 l111 -80 -51 -3 c-81 -5 -513 27 -730 54
-110 13 -201 26 -202 27 -8 7 64 150 102 203 43 62 169 194 184 194 4 0 112
-71 241 -158z m-615 -328 l20 -5 -19 -75 -20 -74 -140 0 c-199 0 -417 36 -417
68 0 17 155 67 255 81 69 10 290 13 321 5z m214 -23 c188 -24 340 -37 565 -51
205 -12 381 -29 409 -40 12 -4 -57 -10 -159 -14 -246 -10 -989 -25 -994 -20
-4 4 18 144 23 144 1 0 71 -9 156 -19z m545 -216 c-150 -28 -398 -122 -640
-242 -49 -25 -99 -53 -109 -62 -19 -16 -19 -13 -13 100 4 63 10 136 13 162 l7
47 336 3 c185 1 368 3 406 4 l70 1 -70 -13z m780 -86 c11 -17 -2 -22 -42 -14
-36 8 -37 8 -13 15 37 11 48 11 55 -1z m-310 -31 c-22 -4 -103 -17 -180 -28
-405 -61 -634 -129 -964 -289 -47 -22 -87 -39 -89 -36 -7 7 -14 3 135 73 296
139 513 205 853 256 58 9 141 22 185 29 81 13 134 9 60 -5z m223 -79 c51 -10
52 -12 33 -25 -11 -8 -83 -44 -160 -79 -270 -124 -430 -212 -656 -360 -228
-150 -378 -268 -531 -418 l-92 -89 -7 31 c-8 38 16 71 132 181 273 260 522
431 970 665 132 69 226 112 238 110 11 -2 44 -9 73 -16z m1187 6 c134 -26 332
-81 540 -151 364 -122 490 -185 734 -371 75 -57 224 -170 331 -251 284 -214
429 -366 649 -676 137 -194 210 -346 276 -577 113 -390 123 -729 40 -1304 -14
-99 -34 -256 -44 -350 -11 -93 -19 -154 -20 -134 -1 43 31 344 59 549 34 253
43 402 37 634 -9 380 -68 633 -216 926 -201 400 -451 668 -1026 1100 -347 260
-437 309 -791 430 -307 105 -543 166 -699 180 l-80 7 65 2 c36 0 101 -6 145
-14z m-432 -12 c-7 -2 -13 -8 -13 -12 0 -4 48 -42 108 -84 149 -106 234 -186
397 -377 78 -91 195 -214 260 -275 259 -240 285 -273 285 -358 0 -84 -42 -83
-104 4 -19 25 -91 97 -162 161 -133 118 -208 198 -402 424 -105 123 -166 182
-270 263 -23 18 -50 47 -58 65 l-16 31 23 -23 c13 -12 56 -46 94 -74 98 -72
213 -191 329 -341 134 -174 175 -218 265 -285 42 -31 108 -87 147 -124 39 -38
79 -68 88 -68 25 0 19 41 -14 91 -33 51 -58 75 -185 176 -110 88 -159 138
-264 273 -45 58 -101 129 -123 157 -63 82 -141 151 -278 248 -41 29 -92 72
-113 94 l-38 41 28 -1 c15 0 22 -3 16 -6z m-228 -45 c9 -24 30 -82 45 -130 32
-96 74 -184 146 -303 27 -45 62 -109 78 -143 29 -60 29 -62 11 -82 -28 -31
-49 -24 -93 28 -132 158 -238 405 -249 580 l-6 92 25 0 c21 0 29 -8 43 -42z
m160 22 c10 -11 16 -20 13 -20 -3 0 -13 9 -23 20 -10 11 -16 20 -13 20 3 0 13
-9 23 -20z m-486 -13 c5 -12 16 -74 25 -137 9 -63 30 -187 46 -275 37 -207 43
-289 31 -406 -24 -226 -106 -389 -327 -650 -113 -134 -214 -219 -214 -180 0
22 86 131 214 271 258 282 296 448 207 920 -23 124 -45 269 -48 323 -6 97 -6
98 22 127 16 17 30 30 32 30 2 0 7 -10 12 -23z m-1670 -989 c1 -10 -14 -39
-33 -66 -19 -26 -82 -137 -141 -247 -103 -194 -129 -235 -140 -223 -9 9 54
177 102 273 25 50 75 135 111 189 91 136 86 129 94 108 3 -9 7 -25 7 -34z
m5158 -2905 c-2 -16 -4 -3 -4 27 0 30 2 43 4 28 2 -16 2 -40 0 -55z m-10 -140
c-2 -21 -4 -4 -4 37 0 41 2 58 4 38 2 -21 2 -55 0 -75z m-21 -341 c-23 -374
-25 -407 -41 -587 -30 -332 -37 -493 -34 -743 2 -141 1 -234 -3 -207 -12 92
-8 509 7 745 9 129 26 375 40 545 13 171 27 364 31 430 5 66 10 112 12 102 2
-9 -4 -137 -12 -285z m-6 -1857 c29 -92 78 -207 190 -445 51 -107 128 -276
172 -375 119 -268 173 -373 233 -453 30 -40 52 -72 50 -72 -2 0 -29 31 -60 69
-37 46 -81 123 -136 237 -83 172 -385 838 -421 929 -42 103 -89 297 -87 355 0
14 9 -20 19 -75 10 -55 28 -131 40 -170z m-7334 -1104 c-12 -19 -161 -73 -282
-102 -70 -16 -129 -28 -131 -25 -6 5 30 15 157 45 95 22 183 51 226 75 34 18
37 19 30 7z m59 -438 c206 -81 276 -100 502 -132 363 -53 747 -78 1888 -121
1202 -46 1406 -62 2083 -166 163 -25 365 -50 447 -56 134 -9 503 -6 965 6 138
4 144 4 55 -4 -491 -42 -981 -32 -1360 26 -806 123 -1027 143 -1975 174 -1589
52 -2174 103 -2504 217 -234 81 -563 238 -590 282 -3 4 77 -34 177 -84 100
-50 241 -114 312 -142z m8342 -252 c48 -68 40 -70 -16 -3 -27 32 -116 130
-197 218 -224 241 -225 244 -14 30 107 -109 209 -219 227 -245z m-276 -51
c102 -11 285 -48 276 -56 -2 -3 -45 4 -94 15 -49 11 -143 25 -209 31 -65 6
-123 13 -129 15 -21 7 57 5 156 -5z m-193 -7 c-16 -2 -40 -2 -55 0 -16 2 -3 4
27 4 30 0 43 -2 28 -4z m-173 -19 c-261 -45 -523 -74 -825 -93 -278 -18 -628
-33 -641 -29 -7 2 118 12 277 21 555 34 892 64 1109 101 44 7 98 14 120 14 27
0 13 -5 -40 -14z m-1522 -131 c-23 -2 -64 -2 -90 0 -26 2 -7 3 42 3 50 0 71
-1 48 -3z"/>
<path d="M5040 8274 c50 -146 137 -280 177 -272 34 6 25 42 -30 113 -30 39
-78 109 -106 158 -29 48 -57 87 -61 87 -5 0 4 -39 20 -86z"/>
</g>
</svg>
